<mxfile host="Electron" agent="Mozilla/5.0 (Windows NT 10.0; Win64; x64) AppleWebKit/537.36 (KHTML, like Gecko) draw.io/27.0.9 Chrome/134.0.6998.205 Electron/35.4.0 Safari/537.36" version="27.0.9">
  <diagram name="Page-1" id="vO2UfA8msevBTU9LR57p">
    <mxGraphModel dx="1888" dy="786" grid="1" gridSize="10" guides="1" tooltips="1" connect="1" arrows="1" fold="1" page="1" pageScale="1" pageWidth="850" pageHeight="1100" math="0" shadow="0">
      <root>
        <mxCell id="0" />
        <mxCell id="1" parent="0" />
        <mxCell id="XR7aPpYDGS7M4t7vBmlJ-1" value="&lt;b&gt;&lt;font style=&quot;font-size: 38px;&quot;&gt;ETL&lt;/font&gt;&lt;/b&gt;" style="ellipse;whiteSpace=wrap;html=1;aspect=fixed;fillColor=#f5f5f5;fontColor=#333333;strokeColor=#666666;" vertex="1" parent="1">
          <mxGeometry x="340" y="300" width="170" height="170" as="geometry" />
        </mxCell>
        <mxCell id="XR7aPpYDGS7M4t7vBmlJ-54" style="edgeStyle=orthogonalEdgeStyle;rounded=0;orthogonalLoop=1;jettySize=auto;html=1;entryX=0.5;entryY=1;entryDx=0;entryDy=0;" edge="1" parent="1" source="XR7aPpYDGS7M4t7vBmlJ-2" target="XR7aPpYDGS7M4t7vBmlJ-5">
          <mxGeometry relative="1" as="geometry" />
        </mxCell>
        <mxCell id="XR7aPpYDGS7M4t7vBmlJ-2" value="&lt;font style=&quot;font-size: 15px;&quot;&gt;&lt;b&gt;E&lt;/b&gt;xtraction&lt;/font&gt;" style="ellipse;whiteSpace=wrap;html=1;aspect=fixed;fillColor=#d5e8d4;strokeColor=#82b366;" vertex="1" parent="1">
          <mxGeometry x="220" y="190" width="100" height="100" as="geometry" />
        </mxCell>
        <mxCell id="XR7aPpYDGS7M4t7vBmlJ-3" value="&lt;span style=&quot;font-size: 15px;&quot;&gt;&lt;b&gt;L&lt;/b&gt;oad&lt;/span&gt;" style="ellipse;whiteSpace=wrap;html=1;aspect=fixed;fillColor=#dae8fc;strokeColor=#6c8ebf;" vertex="1" parent="1">
          <mxGeometry x="530" y="190" width="100" height="100" as="geometry" />
        </mxCell>
        <mxCell id="XR7aPpYDGS7M4t7vBmlJ-63" style="edgeStyle=orthogonalEdgeStyle;rounded=0;orthogonalLoop=1;jettySize=auto;html=1;exitX=0.5;exitY=1;exitDx=0;exitDy=0;" edge="1" parent="1" source="XR7aPpYDGS7M4t7vBmlJ-4" target="XR7aPpYDGS7M4t7vBmlJ-20">
          <mxGeometry relative="1" as="geometry" />
        </mxCell>
        <mxCell id="XR7aPpYDGS7M4t7vBmlJ-77" style="edgeStyle=orthogonalEdgeStyle;rounded=0;orthogonalLoop=1;jettySize=auto;html=1;" edge="1" parent="1" source="XR7aPpYDGS7M4t7vBmlJ-4" target="XR7aPpYDGS7M4t7vBmlJ-21">
          <mxGeometry relative="1" as="geometry" />
        </mxCell>
        <mxCell id="XR7aPpYDGS7M4t7vBmlJ-78" style="edgeStyle=orthogonalEdgeStyle;rounded=0;orthogonalLoop=1;jettySize=auto;html=1;" edge="1" parent="1" source="XR7aPpYDGS7M4t7vBmlJ-4" target="XR7aPpYDGS7M4t7vBmlJ-22">
          <mxGeometry relative="1" as="geometry" />
        </mxCell>
        <mxCell id="XR7aPpYDGS7M4t7vBmlJ-79" style="edgeStyle=orthogonalEdgeStyle;rounded=0;orthogonalLoop=1;jettySize=auto;html=1;" edge="1" parent="1" source="XR7aPpYDGS7M4t7vBmlJ-4" target="XR7aPpYDGS7M4t7vBmlJ-23">
          <mxGeometry relative="1" as="geometry" />
        </mxCell>
        <mxCell id="XR7aPpYDGS7M4t7vBmlJ-80" style="edgeStyle=orthogonalEdgeStyle;rounded=0;orthogonalLoop=1;jettySize=auto;html=1;" edge="1" parent="1" source="XR7aPpYDGS7M4t7vBmlJ-4" target="XR7aPpYDGS7M4t7vBmlJ-24">
          <mxGeometry relative="1" as="geometry" />
        </mxCell>
        <mxCell id="XR7aPpYDGS7M4t7vBmlJ-81" style="edgeStyle=orthogonalEdgeStyle;rounded=0;orthogonalLoop=1;jettySize=auto;html=1;entryX=0;entryY=0.5;entryDx=0;entryDy=0;" edge="1" parent="1" source="XR7aPpYDGS7M4t7vBmlJ-4" target="XR7aPpYDGS7M4t7vBmlJ-25">
          <mxGeometry relative="1" as="geometry" />
        </mxCell>
        <mxCell id="XR7aPpYDGS7M4t7vBmlJ-82" style="edgeStyle=orthogonalEdgeStyle;rounded=0;orthogonalLoop=1;jettySize=auto;html=1;" edge="1" parent="1" source="XR7aPpYDGS7M4t7vBmlJ-4" target="XR7aPpYDGS7M4t7vBmlJ-26">
          <mxGeometry relative="1" as="geometry" />
        </mxCell>
        <mxCell id="XR7aPpYDGS7M4t7vBmlJ-4" value="&lt;span style=&quot;font-size: 15px;&quot;&gt;&lt;b&gt;T&lt;/b&gt;ransformation&lt;/span&gt;" style="ellipse;whiteSpace=wrap;html=1;aspect=fixed;fillColor=#f8cecc;strokeColor=#b85450;" vertex="1" parent="1">
          <mxGeometry x="375" y="520" width="100" height="100" as="geometry" />
        </mxCell>
        <mxCell id="XR7aPpYDGS7M4t7vBmlJ-5" value="Extraction&lt;div&gt;&lt;b&gt;methods&lt;/b&gt;&lt;/div&gt;" style="rounded=0;whiteSpace=wrap;html=1;fillColor=none;strokeColor=#82b366;" vertex="1" parent="1">
          <mxGeometry x="210" y="100" width="120" height="40" as="geometry" />
        </mxCell>
        <mxCell id="XR7aPpYDGS7M4t7vBmlJ-7" value="&lt;b&gt;Pull&lt;/b&gt;&lt;br&gt;&lt;div&gt;Extraction&lt;/div&gt;" style="rounded=0;whiteSpace=wrap;html=1;fillColor=none;strokeColor=#82b366;" vertex="1" parent="1">
          <mxGeometry x="130" y="10" width="110" height="30" as="geometry" />
        </mxCell>
        <mxCell id="XR7aPpYDGS7M4t7vBmlJ-8" value="&lt;b&gt;Push&lt;/b&gt;&lt;div&gt;Extraction&lt;/div&gt;" style="rounded=0;whiteSpace=wrap;html=1;fillColor=none;strokeColor=#82b366;" vertex="1" parent="1">
          <mxGeometry x="290" y="10" width="110" height="30" as="geometry" />
        </mxCell>
        <mxCell id="XR7aPpYDGS7M4t7vBmlJ-65" style="edgeStyle=orthogonalEdgeStyle;rounded=0;orthogonalLoop=1;jettySize=auto;html=1;entryX=1;entryY=0.5;entryDx=0;entryDy=0;" edge="1" parent="1" source="XR7aPpYDGS7M4t7vBmlJ-9" target="XR7aPpYDGS7M4t7vBmlJ-11">
          <mxGeometry relative="1" as="geometry" />
        </mxCell>
        <mxCell id="XR7aPpYDGS7M4t7vBmlJ-66" style="edgeStyle=orthogonalEdgeStyle;rounded=0;orthogonalLoop=1;jettySize=auto;html=1;" edge="1" parent="1" source="XR7aPpYDGS7M4t7vBmlJ-9" target="XR7aPpYDGS7M4t7vBmlJ-12">
          <mxGeometry relative="1" as="geometry" />
        </mxCell>
        <mxCell id="XR7aPpYDGS7M4t7vBmlJ-9" value="Extraction&lt;div&gt;&lt;b&gt;methods&lt;/b&gt;&lt;/div&gt;" style="rounded=0;whiteSpace=wrap;html=1;fillColor=none;strokeColor=#82b366;" vertex="1" parent="1">
          <mxGeometry x="40" y="180" width="120" height="40" as="geometry" />
        </mxCell>
        <mxCell id="XR7aPpYDGS7M4t7vBmlJ-69" style="edgeStyle=orthogonalEdgeStyle;rounded=0;orthogonalLoop=1;jettySize=auto;html=1;exitX=0.25;exitY=0;exitDx=0;exitDy=0;entryX=1;entryY=0.5;entryDx=0;entryDy=0;" edge="1" parent="1" source="XR7aPpYDGS7M4t7vBmlJ-10" target="XR7aPpYDGS7M4t7vBmlJ-13">
          <mxGeometry relative="1" as="geometry" />
        </mxCell>
        <mxCell id="XR7aPpYDGS7M4t7vBmlJ-71" style="edgeStyle=orthogonalEdgeStyle;rounded=0;orthogonalLoop=1;jettySize=auto;html=1;" edge="1" parent="1" source="XR7aPpYDGS7M4t7vBmlJ-10" target="XR7aPpYDGS7M4t7vBmlJ-14">
          <mxGeometry relative="1" as="geometry" />
        </mxCell>
        <mxCell id="XR7aPpYDGS7M4t7vBmlJ-72" style="edgeStyle=orthogonalEdgeStyle;rounded=0;orthogonalLoop=1;jettySize=auto;html=1;entryX=1;entryY=0.5;entryDx=0;entryDy=0;" edge="1" parent="1" source="XR7aPpYDGS7M4t7vBmlJ-10" target="XR7aPpYDGS7M4t7vBmlJ-15">
          <mxGeometry relative="1" as="geometry" />
        </mxCell>
        <mxCell id="XR7aPpYDGS7M4t7vBmlJ-73" style="edgeStyle=orthogonalEdgeStyle;rounded=0;orthogonalLoop=1;jettySize=auto;html=1;entryX=1;entryY=0.5;entryDx=0;entryDy=0;" edge="1" parent="1" source="XR7aPpYDGS7M4t7vBmlJ-10" target="XR7aPpYDGS7M4t7vBmlJ-16">
          <mxGeometry relative="1" as="geometry">
            <Array as="points">
              <mxPoint x="20" y="370" />
              <mxPoint x="20" y="445" />
            </Array>
          </mxGeometry>
        </mxCell>
        <mxCell id="XR7aPpYDGS7M4t7vBmlJ-74" style="edgeStyle=orthogonalEdgeStyle;rounded=0;orthogonalLoop=1;jettySize=auto;html=1;entryX=1;entryY=0.5;entryDx=0;entryDy=0;" edge="1" parent="1" source="XR7aPpYDGS7M4t7vBmlJ-10" target="XR7aPpYDGS7M4t7vBmlJ-17">
          <mxGeometry relative="1" as="geometry" />
        </mxCell>
        <mxCell id="XR7aPpYDGS7M4t7vBmlJ-75" style="edgeStyle=orthogonalEdgeStyle;rounded=0;orthogonalLoop=1;jettySize=auto;html=1;" edge="1" parent="1" source="XR7aPpYDGS7M4t7vBmlJ-10" target="XR7aPpYDGS7M4t7vBmlJ-18">
          <mxGeometry relative="1" as="geometry" />
        </mxCell>
        <mxCell id="XR7aPpYDGS7M4t7vBmlJ-76" style="edgeStyle=orthogonalEdgeStyle;rounded=0;orthogonalLoop=1;jettySize=auto;html=1;" edge="1" parent="1" source="XR7aPpYDGS7M4t7vBmlJ-10" target="XR7aPpYDGS7M4t7vBmlJ-19">
          <mxGeometry relative="1" as="geometry">
            <Array as="points">
              <mxPoint x="130" y="450" />
              <mxPoint x="155" y="450" />
            </Array>
          </mxGeometry>
        </mxCell>
        <mxCell id="XR7aPpYDGS7M4t7vBmlJ-10" value="Extraction&lt;div&gt;&lt;b&gt;methods&lt;/b&gt;&lt;/div&gt;" style="rounded=0;whiteSpace=wrap;html=1;fillColor=none;strokeColor=#82b366;" vertex="1" parent="1">
          <mxGeometry x="70" y="350" width="120" height="40" as="geometry" />
        </mxCell>
        <mxCell id="XR7aPpYDGS7M4t7vBmlJ-11" value="&lt;b&gt;Full&lt;/b&gt;&lt;br&gt;&lt;div&gt;Extraction&lt;/div&gt;" style="rounded=0;whiteSpace=wrap;html=1;fillColor=none;strokeColor=#82b366;" vertex="1" parent="1">
          <mxGeometry x="-120" y="120" width="110" height="30" as="geometry" />
        </mxCell>
        <mxCell id="XR7aPpYDGS7M4t7vBmlJ-12" value="&lt;b&gt;Incremental&lt;/b&gt;&lt;br&gt;&lt;div&gt;Extraction&lt;/div&gt;" style="rounded=0;whiteSpace=wrap;html=1;fillColor=none;strokeColor=#82b366;" vertex="1" parent="1">
          <mxGeometry x="-120" y="200" width="110" height="30" as="geometry" />
        </mxCell>
        <mxCell id="XR7aPpYDGS7M4t7vBmlJ-13" value="Manual Data&lt;div&gt;Extraction&lt;/div&gt;" style="rounded=0;whiteSpace=wrap;html=1;fillColor=none;strokeColor=#82b366;" vertex="1" parent="1">
          <mxGeometry x="-60" y="305" width="110" height="30" as="geometry" />
        </mxCell>
        <mxCell id="XR7aPpYDGS7M4t7vBmlJ-14" value="Database&lt;div&gt;Querying&lt;/div&gt;" style="rounded=0;whiteSpace=wrap;html=1;fillColor=none;strokeColor=#82b366;" vertex="1" parent="1">
          <mxGeometry x="-140" y="345" width="110" height="30" as="geometry" />
        </mxCell>
        <mxCell id="XR7aPpYDGS7M4t7vBmlJ-15" value="File Parsing" style="rounded=0;whiteSpace=wrap;html=1;fillColor=none;strokeColor=#82b366;" vertex="1" parent="1">
          <mxGeometry x="-140" y="385" width="110" height="30" as="geometry" />
        </mxCell>
        <mxCell id="XR7aPpYDGS7M4t7vBmlJ-16" value="API Calls" style="rounded=0;whiteSpace=wrap;html=1;fillColor=none;strokeColor=#82b366;" vertex="1" parent="1">
          <mxGeometry x="-120" y="430" width="110" height="30" as="geometry" />
        </mxCell>
        <mxCell id="XR7aPpYDGS7M4t7vBmlJ-17" value="Event Based&lt;div&gt;Streaming&lt;/div&gt;" style="rounded=0;whiteSpace=wrap;html=1;fillColor=none;strokeColor=#82b366;" vertex="1" parent="1">
          <mxGeometry x="-80" y="470" width="110" height="30" as="geometry" />
        </mxCell>
        <mxCell id="XR7aPpYDGS7M4t7vBmlJ-18" value="CDC" style="rounded=0;whiteSpace=wrap;html=1;fillColor=none;strokeColor=#82b366;" vertex="1" parent="1">
          <mxGeometry y="510" width="110" height="30" as="geometry" />
        </mxCell>
        <mxCell id="XR7aPpYDGS7M4t7vBmlJ-19" value="Web Scraping" style="rounded=0;whiteSpace=wrap;html=1;fillColor=none;strokeColor=#82b366;" vertex="1" parent="1">
          <mxGeometry x="100" y="470" width="110" height="30" as="geometry" />
        </mxCell>
        <mxCell id="XR7aPpYDGS7M4t7vBmlJ-83" style="edgeStyle=orthogonalEdgeStyle;rounded=0;orthogonalLoop=1;jettySize=auto;html=1;" edge="1" parent="1" source="XR7aPpYDGS7M4t7vBmlJ-20" target="XR7aPpYDGS7M4t7vBmlJ-27">
          <mxGeometry relative="1" as="geometry" />
        </mxCell>
        <mxCell id="XR7aPpYDGS7M4t7vBmlJ-84" style="edgeStyle=orthogonalEdgeStyle;rounded=0;orthogonalLoop=1;jettySize=auto;html=1;" edge="1" parent="1" source="XR7aPpYDGS7M4t7vBmlJ-20" target="XR7aPpYDGS7M4t7vBmlJ-33">
          <mxGeometry relative="1" as="geometry" />
        </mxCell>
        <mxCell id="XR7aPpYDGS7M4t7vBmlJ-85" style="edgeStyle=orthogonalEdgeStyle;rounded=0;orthogonalLoop=1;jettySize=auto;html=1;entryX=1;entryY=0.5;entryDx=0;entryDy=0;" edge="1" parent="1" source="XR7aPpYDGS7M4t7vBmlJ-20" target="XR7aPpYDGS7M4t7vBmlJ-28">
          <mxGeometry relative="1" as="geometry">
            <Array as="points">
              <mxPoint x="425" y="785" />
            </Array>
          </mxGeometry>
        </mxCell>
        <mxCell id="XR7aPpYDGS7M4t7vBmlJ-86" style="edgeStyle=orthogonalEdgeStyle;rounded=0;orthogonalLoop=1;jettySize=auto;html=1;entryX=1;entryY=0.5;entryDx=0;entryDy=0;" edge="1" parent="1" source="XR7aPpYDGS7M4t7vBmlJ-20" target="XR7aPpYDGS7M4t7vBmlJ-29">
          <mxGeometry relative="1" as="geometry" />
        </mxCell>
        <mxCell id="XR7aPpYDGS7M4t7vBmlJ-88" style="edgeStyle=orthogonalEdgeStyle;rounded=0;orthogonalLoop=1;jettySize=auto;html=1;entryX=0;entryY=0.5;entryDx=0;entryDy=0;" edge="1" parent="1" source="XR7aPpYDGS7M4t7vBmlJ-20" target="XR7aPpYDGS7M4t7vBmlJ-31">
          <mxGeometry relative="1" as="geometry" />
        </mxCell>
        <mxCell id="XR7aPpYDGS7M4t7vBmlJ-89" style="edgeStyle=orthogonalEdgeStyle;rounded=0;orthogonalLoop=1;jettySize=auto;html=1;entryX=0;entryY=0.5;entryDx=0;entryDy=0;" edge="1" parent="1" source="XR7aPpYDGS7M4t7vBmlJ-20" target="XR7aPpYDGS7M4t7vBmlJ-32">
          <mxGeometry relative="1" as="geometry">
            <Array as="points">
              <mxPoint x="425" y="785" />
            </Array>
          </mxGeometry>
        </mxCell>
        <mxCell id="XR7aPpYDGS7M4t7vBmlJ-20" value="Data&lt;div&gt;&lt;b&gt;Cleansing&lt;/b&gt;&lt;/div&gt;" style="rounded=0;whiteSpace=wrap;html=1;fillColor=none;strokeColor=#b85450;" vertex="1" parent="1">
          <mxGeometry x="365" y="690" width="120" height="40" as="geometry" />
        </mxCell>
        <mxCell id="XR7aPpYDGS7M4t7vBmlJ-21" value="Data&lt;div&gt;&lt;b&gt;Enrichment&lt;/b&gt;&lt;/div&gt;" style="rounded=0;whiteSpace=wrap;html=1;fillColor=none;strokeColor=#b85450;" vertex="1" parent="1">
          <mxGeometry x="220" y="510" width="110" height="30" as="geometry" />
        </mxCell>
        <mxCell id="XR7aPpYDGS7M4t7vBmlJ-22" value="Data&lt;div&gt;&lt;b&gt;Integration&lt;/b&gt;&lt;/div&gt;" style="rounded=0;whiteSpace=wrap;html=1;fillColor=none;strokeColor=#b85450;" vertex="1" parent="1">
          <mxGeometry x="220" y="555" width="110" height="30" as="geometry" />
        </mxCell>
        <mxCell id="XR7aPpYDGS7M4t7vBmlJ-23" value="&lt;b&gt;Derived&lt;/b&gt;&lt;div&gt;&lt;b&gt;Columns&lt;/b&gt;&lt;/div&gt;" style="rounded=0;whiteSpace=wrap;html=1;fillColor=none;strokeColor=#b85450;" vertex="1" parent="1">
          <mxGeometry x="220" y="600" width="110" height="30" as="geometry" />
        </mxCell>
        <mxCell id="XR7aPpYDGS7M4t7vBmlJ-24" value="Data &lt;b&gt;Normalization &amp;amp; Standardization&lt;/b&gt;" style="rounded=0;whiteSpace=wrap;html=1;fillColor=none;strokeColor=#b85450;" vertex="1" parent="1">
          <mxGeometry x="530" y="510" width="130" height="30" as="geometry" />
        </mxCell>
        <mxCell id="XR7aPpYDGS7M4t7vBmlJ-25" value="Business Rules &amp;amp; Logic" style="rounded=0;whiteSpace=wrap;html=1;fillColor=none;strokeColor=#b85450;fontStyle=1" vertex="1" parent="1">
          <mxGeometry x="530" y="555" width="110" height="30" as="geometry" />
        </mxCell>
        <mxCell id="XR7aPpYDGS7M4t7vBmlJ-26" value="Data&lt;div&gt;&lt;b&gt;Aggregations&lt;/b&gt;&lt;/div&gt;" style="rounded=0;whiteSpace=wrap;html=1;fillColor=none;strokeColor=#b85450;" vertex="1" parent="1">
          <mxGeometry x="530" y="600" width="110" height="30" as="geometry" />
        </mxCell>
        <mxCell id="XR7aPpYDGS7M4t7vBmlJ-27" value="Remove&lt;div&gt;Duplicates&lt;/div&gt;" style="rounded=0;whiteSpace=wrap;html=1;fillColor=none;strokeColor=#b85450;" vertex="1" parent="1">
          <mxGeometry x="200" y="720" width="110" height="30" as="geometry" />
        </mxCell>
        <mxCell id="XR7aPpYDGS7M4t7vBmlJ-28" value="Data Filtering" style="rounded=0;whiteSpace=wrap;html=1;fillColor=none;strokeColor=#b85450;" vertex="1" parent="1">
          <mxGeometry x="240" y="770" width="110" height="30" as="geometry" />
        </mxCell>
        <mxCell id="XR7aPpYDGS7M4t7vBmlJ-29" value="Handling&amp;nbsp;&lt;div&gt;Missing Data&lt;/div&gt;" style="rounded=0;whiteSpace=wrap;html=1;fillColor=none;strokeColor=#b85450;" vertex="1" parent="1">
          <mxGeometry x="280" y="820" width="110" height="30" as="geometry" />
        </mxCell>
        <mxCell id="XR7aPpYDGS7M4t7vBmlJ-30" value="Handling&lt;div&gt;Invalid Values&lt;/div&gt;" style="rounded=0;whiteSpace=wrap;html=1;fillColor=none;strokeColor=#b85450;" vertex="1" parent="1">
          <mxGeometry x="375" y="880" width="110" height="30" as="geometry" />
        </mxCell>
        <mxCell id="XR7aPpYDGS7M4t7vBmlJ-31" value="Handling&lt;div&gt;Unwated Spaces&lt;/div&gt;" style="rounded=0;whiteSpace=wrap;html=1;fillColor=none;strokeColor=#b85450;" vertex="1" parent="1">
          <mxGeometry x="475" y="820" width="110" height="30" as="geometry" />
        </mxCell>
        <mxCell id="XR7aPpYDGS7M4t7vBmlJ-32" value="Data Type&lt;div&gt;Casting&lt;/div&gt;" style="rounded=0;whiteSpace=wrap;html=1;fillColor=none;strokeColor=#b85450;" vertex="1" parent="1">
          <mxGeometry x="500" y="770" width="110" height="30" as="geometry" />
        </mxCell>
        <mxCell id="XR7aPpYDGS7M4t7vBmlJ-33" value="Outlier Detection" style="rounded=0;whiteSpace=wrap;html=1;fillColor=none;strokeColor=#b85450;" vertex="1" parent="1">
          <mxGeometry x="530" y="720" width="110" height="30" as="geometry" />
        </mxCell>
        <mxCell id="XR7aPpYDGS7M4t7vBmlJ-93" style="edgeStyle=orthogonalEdgeStyle;rounded=0;orthogonalLoop=1;jettySize=auto;html=1;" edge="1" parent="1" source="XR7aPpYDGS7M4t7vBmlJ-34" target="XR7aPpYDGS7M4t7vBmlJ-37">
          <mxGeometry relative="1" as="geometry" />
        </mxCell>
        <mxCell id="XR7aPpYDGS7M4t7vBmlJ-94" style="edgeStyle=orthogonalEdgeStyle;rounded=0;orthogonalLoop=1;jettySize=auto;html=1;" edge="1" parent="1" source="XR7aPpYDGS7M4t7vBmlJ-34" target="XR7aPpYDGS7M4t7vBmlJ-38">
          <mxGeometry relative="1" as="geometry" />
        </mxCell>
        <mxCell id="XR7aPpYDGS7M4t7vBmlJ-34" value="&lt;b&gt;Processing&lt;/b&gt;&lt;div&gt;Types&lt;/div&gt;" style="rounded=0;whiteSpace=wrap;html=1;fillColor=none;strokeColor=#6c8ebf;" vertex="1" parent="1">
          <mxGeometry x="520" y="100" width="120" height="40" as="geometry" />
        </mxCell>
        <mxCell id="XR7aPpYDGS7M4t7vBmlJ-96" style="edgeStyle=orthogonalEdgeStyle;rounded=0;orthogonalLoop=1;jettySize=auto;html=1;" edge="1" parent="1" source="XR7aPpYDGS7M4t7vBmlJ-35" target="XR7aPpYDGS7M4t7vBmlJ-40">
          <mxGeometry relative="1" as="geometry" />
        </mxCell>
        <mxCell id="XR7aPpYDGS7M4t7vBmlJ-35" value="&lt;b&gt;Load&lt;/b&gt;&lt;div&gt;Methods&lt;/div&gt;" style="rounded=0;whiteSpace=wrap;html=1;fillColor=none;strokeColor=#6c8ebf;" vertex="1" parent="1">
          <mxGeometry x="670" y="130" width="120" height="40" as="geometry" />
        </mxCell>
        <mxCell id="XR7aPpYDGS7M4t7vBmlJ-107" style="edgeStyle=orthogonalEdgeStyle;rounded=0;orthogonalLoop=1;jettySize=auto;html=1;entryX=0;entryY=0.5;entryDx=0;entryDy=0;" edge="1" parent="1" source="XR7aPpYDGS7M4t7vBmlJ-36" target="XR7aPpYDGS7M4t7vBmlJ-47">
          <mxGeometry relative="1" as="geometry" />
        </mxCell>
        <mxCell id="XR7aPpYDGS7M4t7vBmlJ-108" style="edgeStyle=orthogonalEdgeStyle;rounded=0;orthogonalLoop=1;jettySize=auto;html=1;" edge="1" parent="1" source="XR7aPpYDGS7M4t7vBmlJ-36" target="XR7aPpYDGS7M4t7vBmlJ-48">
          <mxGeometry relative="1" as="geometry" />
        </mxCell>
        <mxCell id="XR7aPpYDGS7M4t7vBmlJ-109" style="edgeStyle=orthogonalEdgeStyle;rounded=0;orthogonalLoop=1;jettySize=auto;html=1;entryX=0;entryY=0.25;entryDx=0;entryDy=0;" edge="1" parent="1" source="XR7aPpYDGS7M4t7vBmlJ-36" target="XR7aPpYDGS7M4t7vBmlJ-49">
          <mxGeometry relative="1" as="geometry" />
        </mxCell>
        <mxCell id="XR7aPpYDGS7M4t7vBmlJ-110" style="edgeStyle=orthogonalEdgeStyle;rounded=0;orthogonalLoop=1;jettySize=auto;html=1;entryX=0;entryY=0.5;entryDx=0;entryDy=0;" edge="1" parent="1" source="XR7aPpYDGS7M4t7vBmlJ-36" target="XR7aPpYDGS7M4t7vBmlJ-50">
          <mxGeometry relative="1" as="geometry" />
        </mxCell>
        <mxCell id="XR7aPpYDGS7M4t7vBmlJ-36" value="&lt;b&gt;Slowly Changing Dimensions&lt;/b&gt;&lt;div&gt;(SCD)&lt;/div&gt;" style="rounded=0;whiteSpace=wrap;html=1;fillColor=none;strokeColor=#6c8ebf;" vertex="1" parent="1">
          <mxGeometry x="640" y="375" width="180" height="40" as="geometry" />
        </mxCell>
        <mxCell id="XR7aPpYDGS7M4t7vBmlJ-37" value="&lt;b&gt;Batch&lt;/b&gt;&lt;div&gt;Processing&lt;/div&gt;" style="rounded=0;whiteSpace=wrap;html=1;fillColor=none;strokeColor=#6c8ebf;" vertex="1" parent="1">
          <mxGeometry x="472.5" y="20" width="100" height="30" as="geometry" />
        </mxCell>
        <mxCell id="XR7aPpYDGS7M4t7vBmlJ-38" value="&lt;b&gt;Stream&lt;/b&gt;&lt;div&gt;Processing&lt;/div&gt;" style="rounded=0;whiteSpace=wrap;html=1;fillColor=none;strokeColor=#6c8ebf;" vertex="1" parent="1">
          <mxGeometry x="587.5" y="20" width="100" height="30" as="geometry" />
        </mxCell>
        <mxCell id="XR7aPpYDGS7M4t7vBmlJ-97" style="edgeStyle=orthogonalEdgeStyle;rounded=0;orthogonalLoop=1;jettySize=auto;html=1;entryX=0;entryY=0.5;entryDx=0;entryDy=0;" edge="1" parent="1" source="XR7aPpYDGS7M4t7vBmlJ-39" target="XR7aPpYDGS7M4t7vBmlJ-41">
          <mxGeometry relative="1" as="geometry" />
        </mxCell>
        <mxCell id="XR7aPpYDGS7M4t7vBmlJ-98" style="edgeStyle=orthogonalEdgeStyle;rounded=0;orthogonalLoop=1;jettySize=auto;html=1;entryX=0;entryY=0.5;entryDx=0;entryDy=0;" edge="1" parent="1" source="XR7aPpYDGS7M4t7vBmlJ-39" target="XR7aPpYDGS7M4t7vBmlJ-42">
          <mxGeometry relative="1" as="geometry" />
        </mxCell>
        <mxCell id="XR7aPpYDGS7M4t7vBmlJ-99" style="edgeStyle=orthogonalEdgeStyle;rounded=0;orthogonalLoop=1;jettySize=auto;html=1;entryX=0;entryY=0.5;entryDx=0;entryDy=0;" edge="1" parent="1" source="XR7aPpYDGS7M4t7vBmlJ-39" target="XR7aPpYDGS7M4t7vBmlJ-43">
          <mxGeometry relative="1" as="geometry" />
        </mxCell>
        <mxCell id="XR7aPpYDGS7M4t7vBmlJ-39" value="&lt;b&gt;Full&lt;/b&gt;&lt;br&gt;&lt;div&gt;Load&lt;/div&gt;" style="rounded=0;whiteSpace=wrap;html=1;fillColor=none;strokeColor=#6c8ebf;" vertex="1" parent="1">
          <mxGeometry x="810" y="60" width="100" height="30" as="geometry" />
        </mxCell>
        <mxCell id="XR7aPpYDGS7M4t7vBmlJ-104" style="edgeStyle=orthogonalEdgeStyle;rounded=0;orthogonalLoop=1;jettySize=auto;html=1;entryX=0;entryY=0.5;entryDx=0;entryDy=0;" edge="1" parent="1" source="XR7aPpYDGS7M4t7vBmlJ-40" target="XR7aPpYDGS7M4t7vBmlJ-44">
          <mxGeometry relative="1" as="geometry" />
        </mxCell>
        <mxCell id="XR7aPpYDGS7M4t7vBmlJ-105" style="edgeStyle=orthogonalEdgeStyle;rounded=0;orthogonalLoop=1;jettySize=auto;html=1;entryX=0;entryY=0.5;entryDx=0;entryDy=0;" edge="1" parent="1" source="XR7aPpYDGS7M4t7vBmlJ-40" target="XR7aPpYDGS7M4t7vBmlJ-45">
          <mxGeometry relative="1" as="geometry" />
        </mxCell>
        <mxCell id="XR7aPpYDGS7M4t7vBmlJ-106" style="edgeStyle=orthogonalEdgeStyle;rounded=0;orthogonalLoop=1;jettySize=auto;html=1;entryX=0;entryY=0.5;entryDx=0;entryDy=0;" edge="1" parent="1" source="XR7aPpYDGS7M4t7vBmlJ-40" target="XR7aPpYDGS7M4t7vBmlJ-46">
          <mxGeometry relative="1" as="geometry" />
        </mxCell>
        <mxCell id="XR7aPpYDGS7M4t7vBmlJ-40" value="&lt;b&gt;Incremental&lt;/b&gt;&lt;div&gt;Load&lt;/div&gt;" style="rounded=0;whiteSpace=wrap;html=1;fillColor=none;strokeColor=#6c8ebf;" vertex="1" parent="1">
          <mxGeometry x="810" y="200" width="100" height="30" as="geometry" />
        </mxCell>
        <mxCell id="XR7aPpYDGS7M4t7vBmlJ-41" value="Truncate &amp;amp; Insert" style="rounded=0;whiteSpace=wrap;html=1;fillColor=none;strokeColor=#6c8ebf;" vertex="1" parent="1">
          <mxGeometry x="950" y="20" width="130" height="30" as="geometry" />
        </mxCell>
        <mxCell id="XR7aPpYDGS7M4t7vBmlJ-42" value="Upsert" style="rounded=0;whiteSpace=wrap;html=1;fillColor=none;strokeColor=#6c8ebf;" vertex="1" parent="1">
          <mxGeometry x="950" y="60" width="130" height="30" as="geometry" />
        </mxCell>
        <mxCell id="XR7aPpYDGS7M4t7vBmlJ-43" value="Drop, Create, Insert" style="rounded=0;whiteSpace=wrap;html=1;fillColor=none;strokeColor=#6c8ebf;" vertex="1" parent="1">
          <mxGeometry x="950" y="100" width="130" height="30" as="geometry" />
        </mxCell>
        <mxCell id="XR7aPpYDGS7M4t7vBmlJ-44" value="Upsert" style="rounded=0;whiteSpace=wrap;html=1;fillColor=none;strokeColor=#6c8ebf;" vertex="1" parent="1">
          <mxGeometry x="960" y="160" width="70" height="30" as="geometry" />
        </mxCell>
        <mxCell id="XR7aPpYDGS7M4t7vBmlJ-45" value="Append" style="rounded=0;whiteSpace=wrap;html=1;fillColor=none;strokeColor=#6c8ebf;" vertex="1" parent="1">
          <mxGeometry x="960" y="200" width="70" height="30" as="geometry" />
        </mxCell>
        <mxCell id="XR7aPpYDGS7M4t7vBmlJ-46" value="Merge" style="rounded=0;whiteSpace=wrap;html=1;fillColor=none;strokeColor=#6c8ebf;" vertex="1" parent="1">
          <mxGeometry x="960" y="240" width="70" height="30" as="geometry" />
        </mxCell>
        <mxCell id="XR7aPpYDGS7M4t7vBmlJ-47" value="&lt;b&gt;SCD 0&lt;/b&gt;&lt;div&gt;No Historization&lt;/div&gt;" style="rounded=0;whiteSpace=wrap;html=1;fillColor=none;strokeColor=#6c8ebf;" vertex="1" parent="1">
          <mxGeometry x="860" y="317.5" width="100" height="30" as="geometry" />
        </mxCell>
        <mxCell id="XR7aPpYDGS7M4t7vBmlJ-48" value="&lt;b&gt;SCD 1&lt;/b&gt;&lt;br&gt;&lt;div&gt;Overwrite&lt;/div&gt;" style="rounded=0;whiteSpace=wrap;html=1;fillColor=none;strokeColor=#6c8ebf;" vertex="1" parent="1">
          <mxGeometry x="870" y="362.5" width="100" height="30" as="geometry" />
        </mxCell>
        <mxCell id="XR7aPpYDGS7M4t7vBmlJ-49" value="&lt;div&gt;&lt;b&gt;SCD 3&lt;/b&gt;&lt;/div&gt;&lt;div&gt;Historization&lt;/div&gt;" style="rounded=0;whiteSpace=wrap;html=1;fillColor=none;strokeColor=#6c8ebf;" vertex="1" parent="1">
          <mxGeometry x="870" y="402.5" width="100" height="30" as="geometry" />
        </mxCell>
        <mxCell id="XR7aPpYDGS7M4t7vBmlJ-50" value="&lt;b&gt;SCD _&lt;/b&gt;" style="rounded=0;whiteSpace=wrap;html=1;fillColor=none;strokeColor=#6c8ebf;" vertex="1" parent="1">
          <mxGeometry x="860" y="440" width="100" height="30" as="geometry" />
        </mxCell>
        <mxCell id="XR7aPpYDGS7M4t7vBmlJ-51" value="" style="endArrow=classic;html=1;rounded=0;" edge="1" parent="1" source="XR7aPpYDGS7M4t7vBmlJ-1" target="XR7aPpYDGS7M4t7vBmlJ-2">
          <mxGeometry width="50" height="50" relative="1" as="geometry">
            <mxPoint x="340" y="360" as="sourcePoint" />
            <mxPoint x="390" y="310" as="targetPoint" />
          </mxGeometry>
        </mxCell>
        <mxCell id="XR7aPpYDGS7M4t7vBmlJ-52" value="" style="endArrow=classic;html=1;rounded=0;" edge="1" parent="1" source="XR7aPpYDGS7M4t7vBmlJ-1" target="XR7aPpYDGS7M4t7vBmlJ-3">
          <mxGeometry width="50" height="50" relative="1" as="geometry">
            <mxPoint x="557" y="353" as="sourcePoint" />
            <mxPoint x="500" y="300" as="targetPoint" />
          </mxGeometry>
        </mxCell>
        <mxCell id="XR7aPpYDGS7M4t7vBmlJ-53" value="" style="endArrow=classic;html=1;rounded=0;" edge="1" parent="1" source="XR7aPpYDGS7M4t7vBmlJ-1" target="XR7aPpYDGS7M4t7vBmlJ-4">
          <mxGeometry width="50" height="50" relative="1" as="geometry">
            <mxPoint x="497" y="523" as="sourcePoint" />
            <mxPoint x="440" y="470" as="targetPoint" />
          </mxGeometry>
        </mxCell>
        <mxCell id="XR7aPpYDGS7M4t7vBmlJ-57" value="" style="endArrow=classic;html=1;rounded=0;" edge="1" parent="1" source="XR7aPpYDGS7M4t7vBmlJ-5" target="XR7aPpYDGS7M4t7vBmlJ-8">
          <mxGeometry width="50" height="50" relative="1" as="geometry">
            <mxPoint x="367" y="133" as="sourcePoint" />
            <mxPoint x="310" y="80" as="targetPoint" />
          </mxGeometry>
        </mxCell>
        <mxCell id="XR7aPpYDGS7M4t7vBmlJ-58" value="" style="endArrow=classic;html=1;rounded=0;exitX=0.25;exitY=0;exitDx=0;exitDy=0;" edge="1" parent="1" source="XR7aPpYDGS7M4t7vBmlJ-5" target="XR7aPpYDGS7M4t7vBmlJ-7">
          <mxGeometry width="50" height="50" relative="1" as="geometry">
            <mxPoint x="287" y="133" as="sourcePoint" />
            <mxPoint x="230" y="80" as="targetPoint" />
          </mxGeometry>
        </mxCell>
        <mxCell id="XR7aPpYDGS7M4t7vBmlJ-61" value="" style="endArrow=classic;html=1;rounded=0;" edge="1" parent="1" source="XR7aPpYDGS7M4t7vBmlJ-2" target="XR7aPpYDGS7M4t7vBmlJ-9">
          <mxGeometry width="50" height="50" relative="1" as="geometry">
            <mxPoint x="247" y="273" as="sourcePoint" />
            <mxPoint x="190" y="220" as="targetPoint" />
          </mxGeometry>
        </mxCell>
        <mxCell id="XR7aPpYDGS7M4t7vBmlJ-62" value="" style="endArrow=classic;html=1;rounded=0;" edge="1" parent="1" source="XR7aPpYDGS7M4t7vBmlJ-2" target="XR7aPpYDGS7M4t7vBmlJ-10">
          <mxGeometry width="50" height="50" relative="1" as="geometry">
            <mxPoint x="277" y="343" as="sourcePoint" />
            <mxPoint x="220" y="290" as="targetPoint" />
          </mxGeometry>
        </mxCell>
        <mxCell id="XR7aPpYDGS7M4t7vBmlJ-87" style="edgeStyle=orthogonalEdgeStyle;rounded=0;orthogonalLoop=1;jettySize=auto;html=1;entryX=0.449;entryY=-0.073;entryDx=0;entryDy=0;entryPerimeter=0;" edge="1" parent="1" source="XR7aPpYDGS7M4t7vBmlJ-20" target="XR7aPpYDGS7M4t7vBmlJ-30">
          <mxGeometry relative="1" as="geometry" />
        </mxCell>
        <mxCell id="XR7aPpYDGS7M4t7vBmlJ-90" value="" style="endArrow=classic;html=1;rounded=0;" edge="1" parent="1" source="XR7aPpYDGS7M4t7vBmlJ-3" target="XR7aPpYDGS7M4t7vBmlJ-34">
          <mxGeometry width="50" height="50" relative="1" as="geometry">
            <mxPoint x="340" y="360" as="sourcePoint" />
            <mxPoint x="390" y="310" as="targetPoint" />
          </mxGeometry>
        </mxCell>
        <mxCell id="XR7aPpYDGS7M4t7vBmlJ-91" value="" style="endArrow=classic;html=1;rounded=0;" edge="1" parent="1" source="XR7aPpYDGS7M4t7vBmlJ-3" target="XR7aPpYDGS7M4t7vBmlJ-36">
          <mxGeometry width="50" height="50" relative="1" as="geometry">
            <mxPoint x="620" y="270" as="sourcePoint" />
            <mxPoint x="620" y="220" as="targetPoint" />
          </mxGeometry>
        </mxCell>
        <mxCell id="XR7aPpYDGS7M4t7vBmlJ-92" value="" style="endArrow=classic;html=1;rounded=0;" edge="1" parent="1" source="XR7aPpYDGS7M4t7vBmlJ-3" target="XR7aPpYDGS7M4t7vBmlJ-35">
          <mxGeometry width="50" height="50" relative="1" as="geometry">
            <mxPoint x="660" y="260" as="sourcePoint" />
            <mxPoint x="660" y="210" as="targetPoint" />
          </mxGeometry>
        </mxCell>
        <mxCell id="XR7aPpYDGS7M4t7vBmlJ-95" style="edgeStyle=orthogonalEdgeStyle;rounded=0;orthogonalLoop=1;jettySize=auto;html=1;entryX=0.5;entryY=1;entryDx=0;entryDy=0;" edge="1" parent="1" source="XR7aPpYDGS7M4t7vBmlJ-35" target="XR7aPpYDGS7M4t7vBmlJ-39">
          <mxGeometry relative="1" as="geometry">
            <mxPoint x="860" y="110" as="targetPoint" />
          </mxGeometry>
        </mxCell>
      </root>
    </mxGraphModel>
  </diagram>
</mxfile>
